<?xml version="1.0" standalone="no"?>
<!DOCTYPE svg PUBLIC "-//W3C//DTD SVG 1.1//EN" "http://www.w3.org/Graphics/SVG/1.1/DTD/svg11.dtd" >
<svg>
<metadata>
Created by FontForge 20090622 at Tue Jun 19 05:42:33 2018
 By deploy user
Copyright (c) 1990 Adobe Systems Incorporated.  All Rights Reserved.Helvetica is a trademark of Linotype AG and/or its subsidiaries.
</metadata>
<defs>
<font id="HelveticaNeueLT-LightExt" horiz-adv-x="668" >
  <font-face 
    font-family="HelveticaNeue LT 43 LightEx"
    font-weight="400"
    font-stretch="normal"
    units-per-em="1000"
    panose-1="2 0 4 0 0 0 0 0 0 0"
    ascent="800"
    descent="-200"
    x-height="520"
    cap-height="714"
    bbox="-160 -220 1161 953"
    underline-thickness="50"
    underline-position="-75"
    unicode-range="U+0020-U+2122"
  />
<missing-glyph horiz-adv-x="500" 
d="M63 0v778h375v-778h-375zM125 63h250v653h-250v-653z" />
    <glyph glyph-name=".notdef" horiz-adv-x="500" 
d="M63 0v778h375v-778h-375zM125 63h250v653h-250v-653z" />
    <glyph glyph-name=".null" horiz-adv-x="0" 
 />
    <glyph glyph-name="nonmarkingreturn" horiz-adv-x="278" 
 />
    <glyph glyph-name="space" unicode=" " horiz-adv-x="278" 
 />
    <glyph glyph-name="exclam" unicode="!" horiz-adv-x="296" 
d="M105 0v110h86v-110h-86zM126 185l-18 340v189h80v-189l-18 -340h-44z" />
    <glyph glyph-name="quotedbl" unicode="&#x22;" horiz-adv-x="407" 
d="M101 464v250h56v-250h-56zM250 464v250h56v-250h-56z" />
    <glyph glyph-name="numbersign" unicode="#" 
d="M164 0l32 226h-114v44h120l22 154h-114v44h120l32 226h50l-32 -226h142l32 226h50l-32 -226h114v-44h-120l-22 -154h114v-44h-120l-32 -226h-50l32 226h-142l-32 -226h-50zM394 270l22 154h-142l-22 -154h142z" />
    <glyph glyph-name="dollar" unicode="$" 
d="M307 396v244q-183 -7 -183 -123q0 -54 54 -84q41 -23 129 -37zM363 317v-265q202 2 202 134q0 105 -202 131zM307 52v273q-127 20 -181 49q-82 45 -82 136q0 100 82 152q68 43 181 46v61h56v-61q112 -6 179 -52q79 -56 82 -161h-74q-11 132 -187 145v-255
q152 -20 217 -63.5t65 -122.5q0 -113 -90 -168q-73 -45 -192 -47v-97h-56v97q-283 14 -284 245h74q0 -164 210 -177z" />
    <glyph glyph-name="percent" unicode="%" horiz-adv-x="963" 
d="M726 34q53 0 83 38t30 106t-30 106t-83 38t-83 -38t-30 -106t30 -106t83 -38zM213 -16l476 724h59l-476 -724h-59zM237 370q53 0 83 38t30 106t-30 106t-83 38t-83 -38t-30 -106t30 -106t83 -38zM726 -16q-78 0 -125 49q-50 52 -50 145t50 145q47 49 125 49t125 -49
q50 -52 50 -145t-48.5 -143.5t-126.5 -50.5zM237 320q-78 0 -125 49q-50 52 -50 145t50 145q47 49 125 49t125 -49q50 -52 50 -145t-48.5 -143.5t-126.5 -50.5z" />
    <glyph glyph-name="ampersand" unicode="&#x26;" horiz-adv-x="778" 
d="M558 132l-247 234q-166 -62 -166 -173q0 -61 48 -102q54 -45 152 -45q130 0 213 86zM698 0l-93 89q-39 -48 -109 -76.5t-155 -28.5q-131 0 -203 61q-67 57 -67 152q0 73 47 122q45 46 151 90q-46 44 -64 72q-26 39 -26 85q0 66 48 107t126 41q89 0 136 -48q38 -39 38 -97
q0 -111 -149 -173l219 -207q30 39 38 120h68q0 -82 -57 -165l153 -144h-101zM459 565q0 38 -26 61q-30 26 -86 26q-40 0 -70 -23t-30 -60q0 -25 14 -48q18 -32 73 -86q125 54 125 130z" />
    <glyph glyph-name="quotesingle" unicode="'" horiz-adv-x="278" 
d="M111 464v250h56v-250h-56z" />
    <glyph glyph-name="parenleft" unicode="(" horiz-adv-x="352" 
d="M262 714h56q-73 -102 -105 -175q-57 -130 -57 -277t57 -277q32 -73 105 -175h-56q-52 59 -93 132q-87 157 -87 320t87 320q41 73 93 132z" />
    <glyph glyph-name="parenright" unicode=")" horiz-adv-x="352" 
d="M90 -190h-56q73 102 105 175q57 130 57 277t-57 277q-32 73 -105 175h56q52 -59 93 -132q87 -157 87 -320t-87 -320q-41 -73 -93 -132z" />
    <glyph glyph-name="asterisk" unicode="*" horiz-adv-x="426" 
d="M185 580v134h56v-134l127 48l20 -49l-132 -50l92 -103l-38 -36l-97 109l-97 -109l-38 36l92 103l-132 50l20 49z" />
    <glyph glyph-name="plus" unicode="+" horiz-adv-x="600" 
d="M275 0v228h-228v50h228v228h50v-228h228v-50h-228v-228h-50z" />
    <glyph glyph-name="comma" unicode="," horiz-adv-x="278" 
d="M96 0v110h86v-112q0 -112 -95 -138v38q28 12 38 39q7 20 7 63h-36z" />
    <glyph glyph-name="hyphenminus" unicode="-" horiz-adv-x="444" 
d="M70 237v74h304v-74h-304z" />
    <glyph glyph-name="period" unicode="." horiz-adv-x="278" 
d="M96 0v110h86v-110h-86z" />
    <glyph glyph-name="slash" unicode="/" horiz-adv-x="407" 
d="M4 -18l343 750h56l-343 -750h-56z" />
    <glyph glyph-name="zero" unicode="0" 
d="M334 646q-218 0 -218 -301q0 -299 218 -299t218 299q0 301 -218 301zM334 708q135 0 211 -87q81 -93 81 -276q0 -181 -81 -275q-76 -86 -211 -86t-210 86q-82 94 -82 275q0 183 82 276q75 87 210 87z" />
    <glyph glyph-name="one" unicode="1" horiz-adv-x="444" 
d="M236 0v520h-216v56h49q92 0 125 22q39 26 54 110h62v-708h-74z" />
    <glyph glyph-name="two" unicode="2" 
d="M594 68v-68h-542q9 77 46 128q56 76 200 151q127 67 166 104q48 45 48 112q0 151 -177 151q-190 0 -194 -189h-74q0 251 269 251q130 0 196 -69q54 -57 54 -145q0 -82 -50 -138q-35 -39 -123 -87q-153 -83 -201 -119q-55 -40 -68 -82h450z" />
    <glyph glyph-name="three" unicode="3" 
d="M282 336v62h48q88 0 129 25q47 27 47 93q0 65 -45.5 97.5t-122.5 32.5q-196 0 -196 -171h-74q2 102 66 164q72 69 204 69q101 0 166 -43q76 -51 76 -149q0 -52 -33 -91q-36 -44 -97 -51v-2q68 -5 111 -51q46 -49 46 -125q0 -111 -82 -165q-71 -47 -196 -47
q-135 0 -206.5 62t-72.5 179h74q7 -179 216 -179q102 0 152 47q41 39 41 101q0 81 -56 115q-46 27 -135 27h-60z" />
    <glyph glyph-name="four" unicode="4" 
d="M418 236v368h-2l-300 -368h302zM418 0v174h-376v68l379 466h65v-472h132v-62h-132v-174h-68z" />
    <glyph glyph-name="five" unicode="5" 
d="M72 326l70 366h417v-62h-361l-49 -229l2 -2q70 68 181 68q128 0 201 -66q70 -65 70 -175q0 -94 -56 -159q-73 -83 -221 -83q-251 0 -277 215h74q26 -153 203 -153q90 0 144 44q59 47 59 136q0 85 -54.5 132t-153.5 47q-115 0 -180 -82z" />
    <glyph glyph-name="six" unicode="6" 
d="M595 528h-74q-10 118 -179 118q-107 0 -159 -70q-56 -74 -60 -239l2 -2q68 129 217 129q124 0 196 -62q75 -65 75 -179t-80 -179q-73 -60 -191 -60q-287 0 -287 338q0 181 68 280q73 106 219 106q121 0 188 -56q57 -47 65 -124zM141 226q0 -72 47 -122q54 -58 154 -58
q85 0 141 48.5t56 129.5q0 77 -53 127.5t-144 50.5q-109 0 -162 -62q-39 -47 -39 -114z" />
    <glyph glyph-name="seven" unicode="7" horiz-adv-x="593" 
d="M552 692v-68q-87 -78 -172 -222q-115 -196 -145 -402h-80q20 163 126 355q95 173 200 269h-454v68h525z" />
    <glyph glyph-name="eight" unicode="8" 
d="M122 193q0 -74 61 -112q55 -35 151 -35t151 35q61 38 61 112q0 76 -62 116q-57 37 -150 37t-150 -37q-62 -40 -62 -116zM48 193q0 146 167 185v2q-133 36 -133 147q0 72 50 119q65 62 202 62t203 -62q49 -47 49 -119q0 -111 -133 -147v-2q167 -39 167 -185
q0 -86 -59 -140q-74 -69 -227 -69t-227 69q-59 54 -59 140zM334 408q87 0 134 33q44 30 44 82q0 123 -178 123t-178 -123q0 -52 44 -82q47 -33 134 -33z" />
    <glyph glyph-name="nine" unicode="9" 
d="M73 164h74q10 -118 179 -118q107 0 159 70q56 74 60 239l-2 2q-68 -129 -217 -129q-124 0 -196 62q-75 65 -75 179t80 179q73 60 191 60q287 0 287 -338q0 -181 -68 -280q-73 -106 -219 -106q-121 0 -188 56q-57 47 -65 124zM527 466q0 72 -46 122q-55 58 -155 58
q-85 0 -140 -47q-57 -50 -57 -131q0 -77 52 -126q54 -52 145 -52q109 0 162 63q39 46 39 113z" />
    <glyph glyph-name="colon" unicode=":" horiz-adv-x="278" 
d="M96 0v110h86v-110h-86zM96 396v110h86v-110h-86z" />
    <glyph glyph-name="semicolon" unicode=";" horiz-adv-x="278" 
d="M96 0v110h86v-112q0 -112 -95 -138v38q28 12 38 39q7 20 7 63h-36zM96 396v110h86v-110h-86z" />
    <glyph glyph-name="less" unicode="&#x3c;" horiz-adv-x="600" 
d="M47 225v56l506 233v-56l-444 -205l444 -205v-56z" />
    <glyph glyph-name="equal" unicode="=" horiz-adv-x="600" 
d="M47 325v50h506v-50h-506zM47 131v50h506v-50h-506z" />
    <glyph glyph-name="greater" unicode="&#x3e;" horiz-adv-x="600" 
d="M491 253l-444 205v56l506 -233v-56l-506 -233v56z" />
    <glyph glyph-name="question" unicode="?" horiz-adv-x="648" 
d="M128 491h-74q0 104 64 170q70 71 195 71q109 0 179 -49q80 -56 80 -157q0 -64 -35 -108q-26 -33 -108 -91q-63 -45 -76.5 -67.5t-13.5 -74.5h-68q0 77 19 106q17 25 112 96q51 38 67 58q29 34 29 81q0 63 -52 100.5t-133 37.5q-182 0 -185 -173zM262 0v110h86v-110h-86z
" />
    <glyph glyph-name="at" unicode="@" horiz-adv-x="800" 
d="M248 287q0 -104 83 -104q72 0 128 89q50 80 50 158q0 99 -82 99q-74 0 -129 -85q-50 -76 -50 -157zM541 494l24 67h56l-99 -298q-12 -36 -12 -60q0 -26 26 -26q61 0 117 84q53 81 53 162q0 117 -88 193q-83 72 -199 72q-138 0 -231.5 -98t-93.5 -233q0 -137 95 -234
t230 -97q79 0 153 38.5t113 102.5h56q-48 -85 -135.5 -135t-186.5 -50q-159 0 -267 110t-108 265q0 156 110 265.5t265 109.5q142 0 239.5 -89t97.5 -223q0 -113 -76 -202q-72 -85 -154 -85q-66 0 -66 69h-2q-62 -69 -135 -69q-62 0 -99.5 43t-37.5 106q0 112 67 201
q73 96 178 96q78 0 110 -85z" />
    <glyph glyph-name="A" unicode="A" horiz-adv-x="722" 
d="M517 285l-157 355l-159 -355h316zM642 0l-95 217h-376l-97 -217h-80l324 714h86l324 -714h-86z" />
    <glyph glyph-name="B" unicode="B" horiz-adv-x="741" 
d="M66 0v714h406q100 0 152 -52q47 -47 47 -128q0 -55 -30 -95q-32 -44 -93 -58v-2q70 -10 110.5 -57.5t40.5 -117.5q0 -103 -77 -158q-64 -46 -159 -46h-397zM140 646v-242h293q164 0 164 127q0 115 -139 115h-318zM140 336v-268h311q168 0 168 136q0 132 -150 132h-329z
" />
    <glyph glyph-name="C" unicode="C" horiz-adv-x="815" 
d="M700 272h74q-12 -124 -106 -205q-98 -85 -247 -85q-174 0 -277 101.5t-103 273.5q0 144 85 249q104 126 295 126q131 0 224 -59q108 -69 123 -200h-74q-16 96 -96 147q-72 44 -177 44q-138 0 -216 -75q-84 -81 -84 -232q0 -132 69 -213q79 -94 231 -94q238 0 279 222z
" />
    <glyph glyph-name="D" unicode="D" horiz-adv-x="778" 
d="M66 0v714h347q154 0 235 -93.5t81 -263.5q0 -157 -77 -254q-83 -103 -228 -103h-358zM140 646v-578h270q107 0 168 62q71 74 71 227q0 289 -239 289h-270z" />
    <glyph glyph-name="E" unicode="E" horiz-adv-x="685" 
d="M78 0v714h568v-68h-494v-242h476v-68h-476v-268h502v-68h-576z" />
    <glyph glyph-name="F" unicode="F" horiz-adv-x="611" 
d="M66 0v714h535v-68h-461v-242h438v-68h-438v-336h-74z" />
    <glyph glyph-name="G" unicode="G" horiz-adv-x="852" 
d="M729 0l-10 135h-2q-56 -80 -123 -116q-71 -37 -174 -37q-178 0 -278 104q-96 100 -96 271q0 165 103.5 270t278.5 105q144 0 240 -72q90 -68 105 -172h-80q-21 87 -95 133q-69 43 -170 43q-144 0 -223 -82t-79 -225q0 -146 73 -225q74 -82 215 -82q261 0 304 250h-262v68
h330v-368h-57z" />
    <glyph glyph-name="H" unicode="H" horiz-adv-x="796" 
d="M66 0v714h74v-302h516v302h74v-714h-74v344h-516v-344h-74z" />
    <glyph glyph-name="I" unicode="I" horiz-adv-x="222" 
d="M74 0v714h74v-714h-74z" />
    <glyph glyph-name="J" unicode="J" horiz-adv-x="556" 
d="M99 234v-26q0 -164 158 -164q80 0 117 36q42 41 42 140v494h74v-514q0 -100 -57 -157q-62 -61 -180 -61q-145 0 -197 93q-29 51 -31 159h74z" />
    <glyph glyph-name="K" unicode="K" horiz-adv-x="741" 
d="M78 0v714h74v-386l461 386h107l-354 -295l378 -419h-105l-331 369l-156 -128v-241h-74z" />
    <glyph glyph-name="L" unicode="L" horiz-adv-x="593" 
d="M66 0v714h74v-646h453v-68h-527z" />
    <glyph glyph-name="M" unicode="M" horiz-adv-x="981" 
d="M492 93l318 621h105v-714h-74v617h-2l-315 -617h-68l-314 618h-2v-618h-74v714h108z" />
    <glyph glyph-name="N" unicode="N" horiz-adv-x="796" 
d="M66 0v714h89l499 -610h2v610h74v-714h-86l-502 610h-2v-610h-74z" />
    <glyph glyph-name="O" unicode="O" horiz-adv-x="852" 
d="M38 357q0 180 118 282q107 93 270 93t270 -93q118 -102 118 -282t-118 -282q-107 -93 -270 -93t-270 93q-118 102 -118 282zM118 357q0 -151 95 -234q84 -73 213 -73t213 73q95 83 95 234t-95 234q-84 73 -213 73t-213 -73q-95 -83 -95 -234z" />
    <glyph glyph-name="P" unicode="P" horiz-adv-x="704" 
d="M152 646v-278h286q160 0 160 140q0 138 -145 138h-301zM78 0v714h385q92 0 149 -46q66 -54 66 -160q0 -101 -64 -154.5t-184 -53.5h-278v-300h-74z" />
    <glyph glyph-name="Q" unicode="Q" horiz-adv-x="852" 
d="M476 152l39 49l112 -86q107 80 107 242q0 151 -95 234q-84 73 -213 73t-213 -73q-95 -83 -95 -234t95 -234q84 -73 213 -73q80 0 143 30zM794 -14l-39 -49l-123 95q-90 -50 -206 -50q-163 0 -270 93q-118 102 -118 282t118 282q107 93 270 93t270 -93q118 -102 118 -282
q0 -189 -127 -288z" />
    <glyph glyph-name="R" unicode="R" horiz-adv-x="741" 
d="M78 0v714h389q232 0 232 -193q0 -60 -35 -107q-38 -51 -105 -66v-2q71 -11 99 -61q24 -42 28 -137q6 -130 25 -148h-80q-17 20 -19 146q-1 94 -40.5 131t-132.5 37h-287v-314h-74zM152 646v-264h313q154 0 154 139q0 125 -147 125h-320z" />
    <glyph glyph-name="S" unicode="S" 
d="M624 510h-74q-13 154 -224 154q-89 0 -144 -33q-58 -34 -58 -93q0 -65 65 -96q50 -23 196 -48q125 -21 179 -51q81 -46 81 -138q0 -120 -97 -177q-77 -46 -201 -46q-309 0 -324 254h74q9 -105 79 -149q57 -37 171 -37q218 0 218 142q0 72 -81 105q-41 16 -179 38
q-134 21 -194 62q-67 45 -67 128q0 108 89 162q75 45 193 45q125 0 202 -47q93 -57 96 -175z" />
    <glyph glyph-name="T" unicode="T" horiz-adv-x="630" 
d="M278 0v646h-280v68h634v-68h-280v-646h-74z" />
    <glyph glyph-name="U" unicode="U" horiz-adv-x="778" 
d="M708 714v-438q0 -127 -53 -196q-77 -98 -266 -98t-266 98q-53 69 -53 196v438h74v-438q0 -226 245 -226t245 226v438h74z" />
    <glyph glyph-name="V" unicode="V" horiz-adv-x="685" 
d="M347 84l273 630h80l-316 -714h-80l-319 714h86z" />
    <glyph glyph-name="W" unicode="W" horiz-adv-x="1056" 
d="M787 98l200 616h80l-240 -714h-86l-215 610h-2l-212 -610h-86l-237 714h83l198 -616h2l211 616h91l211 -616h2z" />
    <glyph glyph-name="X" unicode="X" horiz-adv-x="667" 
d="M-8 0l290 362l-278 352h99l232 -294l239 294h92l-280 -348l289 -366h-98l-244 307l-246 -307h-95z" />
    <glyph glyph-name="Y" unicode="Y" horiz-adv-x="686" 
d="M306 0v300l-321 414h96l262 -340l262 340h96l-321 -414v-300h-74z" />
    <glyph glyph-name="Z" unicode="Z" horiz-adv-x="648" 
d="M5 0v68l530 578h-496v68h596v-68l-533 -578h541v-68h-638z" />
    <glyph glyph-name="bracketleft" unicode="[" horiz-adv-x="352" 
d="M108 -190v904h196v-56h-128v-792h128v-56h-196z" />
    <glyph glyph-name="backslash" unicode="\" horiz-adv-x="407" 
d="M348 -18l-345 750h56l345 -750h-56z" />
    <glyph glyph-name="bracketright" unicode="]" horiz-adv-x="352" 
d="M244 714v-904h-196v56h128v792h-128v56h196z" />
    <glyph glyph-name="asciicircum" unicode="^" horiz-adv-x="600" 
d="M500 239l-200 391l-200 -391h-56l231 453h50l231 -453h-56z" />
    <glyph glyph-name="underscore" unicode="_" horiz-adv-x="500" 
d="M0 -125v50h500v-50h-500z" />
    <glyph glyph-name="grave" unicode="`" horiz-adv-x="184" 
d="M41 740l115 -142h-61l-145 142h91z" />
    <glyph glyph-name="a" unicode="a" horiz-adv-x="611" 
d="M471 201v79q-23 -15 -72 -22q-33 -5 -159 -17q-136 -13 -136 -96q0 -105 150 -105q83 0 146 40q71 46 71 121zM121 360h-68q9 87 61 129q60 47 187 47t184 -39q54 -38 54 -115v-272q0 -58 41 -58q13 0 39 2v-50q-40 -8 -62 -8q-50 0 -68 31q-11 19 -12 61h-2
q-70 -104 -243 -104q-79 0 -134 34q-68 42 -68 122q0 94 87 132q55 25 173.5 31.5t149.5 18t31 50.5q0 56 -40 79t-132 23q-89 0 -131.5 -26.5t-46.5 -87.5z" />
    <glyph glyph-name="b" unicode="b" horiz-adv-x="667" 
d="M57 0v720h74v-304h2q27 52 82 85q59 35 130 35q138 0 214 -84q69 -75 69 -192q0 -111 -62 -186q-75 -90 -221 -90q-84 0 -146 44q-46 32 -66 76h-2v-104h-74zM127 260q0 -99 63 -158q60 -56 155 -56q105 0 161 68q48 58 48 146q0 97 -61 157q-58 57 -148 57
q-106 0 -166 -67q-52 -59 -52 -147z" />
    <glyph glyph-name="c" unicode="c" horiz-adv-x="611" 
d="M512 186h74q-15 -74 -66 -126q-72 -76 -197 -76q-138 0 -217 77q-76 74 -76 199q0 123 73 197q78 79 220 79q120 0 192 -65q56 -51 67 -121h-74q-32 124 -185 124q-107 0 -165 -62q-54 -57 -54 -152q0 -98 57.5 -156t161.5 -58q156 0 189 140z" />
    <glyph glyph-name="d" unicode="d" horiz-adv-x="667" 
d="M540 260q0 88 -52 147q-60 67 -166 67q-90 0 -148 -57q-61 -60 -61 -157q0 -88 48 -146q56 -68 161 -68q95 0 156.5 57.5t61.5 156.5zM536 0v104h-2q-20 -44 -66 -76q-62 -44 -146 -44q-146 0 -221 90q-62 75 -62 186q0 117 69 192q76 84 214 84q71 0 130 -35
q55 -33 82 -85h2v304h74v-720h-74z" />
    <glyph glyph-name="e" unicode="e" horiz-adv-x="648" 
d="M113 298h428q-15 90 -78 136q-55 40 -136 40q-80 0 -136 -40q-66 -47 -78 -136zM528 166h74q-59 -182 -280 -182q-146 0 -221 90q-62 75 -62 186q0 117 69 192q76 84 214 84q122 0 197 -58q96 -75 96 -236h-502q0 -84 55 -138q58 -58 154 -58q90 0 140 30q46 29 66 90z
" />
    <glyph glyph-name="f" unicode="f" horiz-adv-x="315" 
d="M107 0v464h-113v56h113v69q0 71 37 102q34 29 109 29q37 0 83 -4v-62q-46 4 -69 4q-50 0 -68 -16t-18 -61v-61h147v-56h-147v-464h-74z" />
    <glyph glyph-name="g" unicode="g" horiz-adv-x="667" 
d="M540 271q0 87 -56 142q-60 61 -166 61q-98 0 -156 -54t-58 -149q0 -209 220 -209q94 0 155 56t61 153zM538 419v101h74v-500q0 -131 -95 -192q-74 -48 -197 -48q-248 0 -266 169h68q11 -55 39 -78q45 -35 162 -35q103 0 159 48t56 141v93h-2q-62 -118 -230 -118
q-114 0 -187 59q-89 72 -89 212q0 112 69 184q76 81 215 81q170 0 222 -117h2z" />
    <glyph glyph-name="h" unicode="h" horiz-adv-x="630" 
d="M57 0v720h74v-302h2q18 46 73 80q62 38 142 38q225 0 225 -214v-322h-74v335q0 139 -157 139q-211 0 -211 -192v-282h-74z" />
    <glyph glyph-name="i" unicode="i" horiz-adv-x="184" 
d="M55 0v520h74v-520h-74zM55 610v110h74v-110h-74z" />
    <glyph glyph-name="j" unicode="j" horiz-adv-x="184" 
d="M-76 -217v62q24 -3 50 -3q48 0 66 20q15 17 15 59v599h74v-599q0 -141 -135 -141q-1 0 -70 3zM55 610v110h74v-110h-74z" />
    <glyph glyph-name="k" unicode="k" horiz-adv-x="574" 
d="M57 0v720h74v-453l317 253h110l-255 -197l274 -323h-98l-231 275l-117 -89v-186h-74z" />
    <glyph glyph-name="l" unicode="l" horiz-adv-x="184" 
d="M55 0v720h74v-720h-74z" />
    <glyph glyph-name="m" unicode="m" horiz-adv-x="1000" 
d="M869 0v330q0 144 -155 144q-84 0 -130.5 -45t-46.5 -122v-307h-74v352q0 53 -36 86q-40 36 -112 36q-82 0 -132 -45q-52 -49 -52 -136v-293h-74v520h74v-96h2q63 112 206 112q80 0 131 -37q42 -31 55 -77q21 44 72 77q60 37 132 37q106 0 162 -50q52 -48 52 -131v-355
h-74z" />
    <glyph glyph-name="n" unicode="n" horiz-adv-x="630" 
d="M499 0v335q0 139 -157 139q-211 0 -211 -192v-282h-74v520h74v-102h2q18 46 73 80q62 38 142 38q225 0 225 -214v-322h-74z" />
    <glyph glyph-name="o" unicode="o" 
d="M113 260q0 -96 59 -155t162 -59t162 59t59 155t-59 155t-162 59t-162 -59t-59 -155zM39 260q0 117 73 192q80 84 222 84t223 -84q72 -75 72 -192t-72 -192q-81 -84 -223 -84t-222 84q-73 75 -73 192z" />
    <glyph glyph-name="p" unicode="p" horiz-adv-x="667" 
d="M57 -202v722h74v-104h2q55 120 212 120q146 0 221 -90q62 -75 62 -186q0 -117 -69 -192q-76 -84 -214 -84q-71 0 -130 35q-55 33 -82 85h-2v-306h-74zM127 260q0 -88 52 -147q60 -67 166 -67q90 0 149.5 58.5t59.5 155.5q0 88 -48 146q-56 68 -161 68q-95 0 -155 -56
q-63 -59 -63 -158z" />
    <glyph glyph-name="q" unicode="q" horiz-adv-x="667" 
d="M536 416v104h74v-722h-74v306h-2q-27 -52 -82 -85q-59 -35 -130 -35q-138 0 -214 84q-69 75 -69 192q0 108 66 186q77 90 211 90q87 0 150 -42q51 -34 68 -78h2zM540 260q0 99 -63 158q-60 56 -155 56q-105 0 -161 -68q-48 -58 -48 -146q0 -97 61 -156q58 -58 148 -58
q106 0 166 67q52 59 52 147z" />
    <glyph glyph-name="r" unicode="r" horiz-adv-x="370" 
d="M57 0v520h74v-119h2q59 135 199 135q22 0 44 -4v-76q-34 6 -68 6q-71 0 -118 -43q-59 -53 -59 -154v-265h-74z" />
    <glyph glyph-name="s" unicode="s" horiz-adv-x="556" 
d="M512 366h-68q-14 61 -56 86q-39 22 -123 22q-150 0 -150 -89q0 -40 37 -55q34 -15 156 -31q126 -17 172 -45q53 -32 53 -105q0 -78 -63 -121.5t-184 -43.5q-263 0 -263 179h68q10 -65 52.5 -91t142.5 -26q173 0 173 99q0 40 -39 59q-42 20 -160 32q-121 12 -170 44.5
t-49 101.5q0 70 55 111q59 43 169 43q233 0 247 -170z" />
    <glyph glyph-name="t" unicode="t" horiz-adv-x="352" 
d="M107 520v164h74v-164h147v-56h-147v-344q0 -36 15.5 -51t58.5 -15q45 0 73 6v-62q-42 -6 -81 -6q-82 0 -113 33q-27 28 -27 96v343h-113v56h113z" />
    <glyph glyph-name="u" unicode="u" horiz-adv-x="630" 
d="M499 0v102h-2q-18 -46 -73 -80q-62 -38 -142 -38q-225 0 -225 214v322h74v-335q0 -139 157 -139q211 0 211 192v282h74v-520h-74z" />
    <glyph glyph-name="v" unicode="v" horiz-adv-x="556" 
d="M278 85l204 435h80l-244 -520h-80l-244 520h80z" />
    <glyph glyph-name="w" unicode="w" horiz-adv-x="889" 
d="M642 97l167 423h80l-211 -520h-80l-157 416l-155 -416h-80l-206 520h80l165 -426l157 426h80z" />
    <glyph glyph-name="x" unicode="x" horiz-adv-x="574" 
d="M-3 0l239 270l-222 250h96l176 -198l175 198h97l-225 -250l244 -270h-98l-193 216l-192 -216h-97z" />
    <glyph glyph-name="y" unicode="y" horiz-adv-x="556" 
d="M286 87l196 433h80l-282 -617q-28 -62 -59.5 -83.5t-92.5 -21.5q-49 0 -71 2v62q32 -2 53 -2q41 0 63 13t40 51l34 72l-253 524h80z" />
    <glyph glyph-name="z" unicode="z" horiz-adv-x="556" 
d="M20 0v62l395 396h-372v62h478v-62l-403 -396h418v-62h-516z" />
    <glyph glyph-name="braceleft" unicode="{" horiz-adv-x="352" 
d="M48 243v38q35 0 47.5 28t12.5 109v175q0 121 107 121h58v-38h-49q-48 0 -48 -83v-175q0 -72 -26 -113q-20 -34 -52 -42v-2q32 -8 52 -41q26 -42 26 -114v-175q0 -83 48 -83h49v-38h-58q-107 0 -107 121v175q0 81 -12.5 109t-47.5 28z" />
    <glyph glyph-name="bar" unicode="|" horiz-adv-x="222" 
d="M86 -18v750h50v-750h-50z" />
    <glyph glyph-name="braceright" unicode="}" horiz-adv-x="352" 
d="M79 -190v38h49q48 0 48 83v175q0 72 26 114q20 33 52 41v2q-32 8 -52 42q-26 41 -26 113v175q0 83 -48 83h-49v38h58q107 0 107 -121v-175q0 -81 12.5 -109t47.5 -28v-38q-35 0 -47.5 -28t-12.5 -109v-175q0 -121 -107 -121h-58z" />
    <glyph glyph-name="asciitilde" unicode="~" horiz-adv-x="600" 
d="M495 316v0l36 -36q-30 -42 -50 -59q-34 -27 -75 -27q-42 0 -102 33q-63 35 -115 35q-51 0 -84 -72l-36 36q45 86 125 86q38 0 111 -32q82 -36 102 -36q41 0 88 72z" />
    <glyph glyph-name="Euro" 
d="M620 553q-11 19 -27 36t-45 31q-33 17 -67 21.5t-63 4.5q-16 0 -38.5 -2t-47 -9t-49.5 -20.5t-45 -36.5t-33.5 -56t-18.5 -66h381l-28 -50h-360q-5 -54 0 -107h305l-28 -50h-272q5 -35 18 -69.5t34 -60.5q19 -24 41 -38.5t44.5 -22t44.5 -10t43 -2.5q41 0 76 7.5t73 27.5
q27 15 48 33t38 40v-86q-15 -14 -34.5 -28t-41.5 -24q-35 -16 -79.5 -24t-83.5 -8q-26 0 -55.5 3.5t-59 14t-58 29.5t-53.5 49q-26 32 -44.5 76.5t-24.5 92.5h-100l28 50h67q-5 53 0 107h-95l28 50h74q7 42 26 86.5t50 78.5q27 30 57.5 47t61.5 26t60 11.5t53 2.5
q32 0 74.5 -5.5t84.5 -25.5q29 -14 48 -31.5t31 -32.5z" />
    <glyph glyph-name="Euro" unicode="&#x20ac;" 
d="M620 553q-11 19 -27 36t-45 31q-33 17 -67 21.5t-63 4.5q-16 0 -38.5 -2t-47 -9t-49.5 -20.5t-45 -36.5t-33.5 -56t-18.5 -66h381l-28 -50h-360q-5 -54 0 -107h305l-28 -50h-272q5 -35 18 -69.5t34 -60.5q19 -24 41 -38.5t44.5 -22t44.5 -10t43 -2.5q41 0 76 7.5t73 27.5
q27 15 48 33t38 40v-86q-15 -14 -34.5 -28t-41.5 -24q-35 -16 -79.5 -24t-83.5 -8q-26 0 -55.5 3.5t-59 14t-58 29.5t-53.5 49q-26 32 -44.5 76.5t-24.5 92.5h-100l28 50h67q-5 53 0 107h-95l28 50h74q7 42 26 86.5t50 78.5q27 30 57.5 47t61.5 26t60 11.5t53 2.5
q32 0 74.5 -5.5t84.5 -25.5q29 -14 48 -31.5t31 -32.5z" />
    <glyph glyph-name="quotesinglbase" unicode="&#x201a;" horiz-adv-x="278" 
d="M96 0v110h86v-112q0 -112 -95 -138v38q28 12 38 39q7 20 7 63h-36z" />
    <glyph glyph-name="florin" unicode="&#x192;" 
d="M161 356l9 44h135l33 156q19 92 70 127q36 25 101 25q37 0 85 -8l-11 -60q-45 6 -69 6q-46 0 -66 -19q-27 -24 -42 -97l-27 -130h139l-11 -44h-137l-78 -371q-19 -89 -47 -126q-42 -55 -129 -55q-37 0 -88 7l12 60q55 -5 67 -5q55 0 76 24t39 109l74 357h-135z" />
    <glyph glyph-name="quotedblbase" unicode="&#x201e;" horiz-adv-x="407" 
d="M71 0v110h86v-112q0 -112 -95 -138v38q28 12 38 39q7 20 7 63h-36zM250 0v110h86v-112q0 -112 -95 -138v38q28 12 38 39q7 20 7 63h-36z" />
    <glyph glyph-name="ellipsis" unicode="&#x2026;" horiz-adv-x="1000" 
d="M124 0v110h86v-110h-86zM457 0v110h86v-110h-86zM790 0v110h86v-110h-86z" />
    <glyph glyph-name="dagger" unicode="&#x2020;" 
d="M297 -156v581h-241v62h241v227h74v-227h241v-62h-241v-581h-74z" />
    <glyph glyph-name="daggerdbl" unicode="&#x2021;" 
d="M297 -156v217h-241v62h241v317h-241v62h241v212h74v-212h241v-62h-241v-317h241v-62h-241v-217h-74z" />
    <glyph glyph-name="circumflex" unicode="&#x2c6;" horiz-adv-x="184" 
d="M-91 598l143 142h80l143 -142h-75l-108 101l-108 -101h-75z" />
    <glyph glyph-name="perthousand" unicode="&#x2030;" horiz-adv-x="1167" 
d="M986 34q53 0 83 38t30 106t-30 106t-83 38t-83 -38t-30 -106t30 -106t83 -38zM120 -16l476 724h59l-476 -724h-59zM181 370q53 0 83 38t30 106t-30 106t-83 38t-83 -38t-30 -106t30 -106t83 -38zM986 -16q-78 0 -125 49q-50 52 -50 145t50 145q47 49 125 49t125 -49
q50 -52 50 -145t-48.5 -143.5t-126.5 -50.5zM181 320q-78 0 -125 49q-50 52 -50 145t50 145q47 49 125 49t125 -49q50 -52 50 -145t-48.5 -143.5t-126.5 -50.5zM594 -16q-78 0 -125 49q-50 52 -50 145t50 145q47 49 125 49t125 -49q50 -52 50 -145t-48.5 -143.5
t-126.5 -50.5zM594 34q53 0 83 38t30 106t-30 106t-83 38t-83 -38t-30 -106t30 -106t83 -38z" />
    <glyph glyph-name="Scaron" unicode="&#x160;" 
d="M624 510h-74q-13 154 -224 154q-89 0 -144 -33q-58 -34 -58 -93q0 -65 65 -96q50 -23 196 -48q125 -21 179 -51q81 -46 81 -138q0 -120 -97 -177q-77 -46 -201 -46q-309 0 -324 254h74q9 -105 79 -149q57 -37 171 -37q218 0 218 142q0 72 -81 105q-41 16 -179 38
q-134 21 -194 62q-67 45 -67 128q0 108 89 162q75 45 193 45q125 0 202 -47q93 -57 96 -175zM517 894l-143 -142h-80l-143 142h75l108 -101l108 101h75z" />
    <glyph glyph-name="guilsinglleft" unicode="&#x2039;" horiz-adv-x="315" 
d="M73 238v72l157 135v-77l-113 -94l113 -94v-77z" />
    <glyph glyph-name="OE" unicode="&#x152;" horiz-adv-x="1167" 
d="M616 178v373q0 28 -54 65q-69 48 -170 48q-117 0 -192 -78q-82 -85 -82 -229q0 -151 79 -232q72 -75 195 -75q101 0 170 54q54 42 54 74zM616 0v78q-82 -96 -224 -96q-155 0 -250 93q-104 101 -104 282q0 154 89 259q99 116 265 116q153 0 222 -86h2v68h515v-68h-441
v-242h418v-68h-418v-268h446v-68h-520z" />
    <glyph glyph-name="Zcaron" horiz-adv-x="648" 
d="M5 0v68l530 578h-496v68h596v-68l-533 -578h541v-68h-638zM507 894l-143 -142h-80l-143 142h75l108 -101l108 101h75z" />
    <glyph glyph-name="Zcaron" unicode="&#x17d;" horiz-adv-x="648" 
d="M5 0v68l530 578h-496v68h596v-68l-533 -578h541v-68h-638zM507 894l-143 -142h-80l-143 142h75l108 -101l108 101h75z" />
    <glyph glyph-name="quoteleft" unicode="&#x2018;" horiz-adv-x="278" 
d="M96 464v112q0 112 95 138v-38q-28 -12 -37 -39q-8 -20 -8 -63h36v-110h-86z" />
    <glyph glyph-name="quoteright" unicode="&#x2019;" horiz-adv-x="278" 
d="M96 604v110h86v-112q0 -112 -95 -138v38q28 12 38 39q7 20 7 63h-36z" />
    <glyph glyph-name="quotedblleft" unicode="&#x201c;" horiz-adv-x="407" 
d="M250 464v112q0 112 95 138v-38q-28 -12 -37 -39q-8 -20 -8 -63h36v-110h-86zM71 464v112q0 112 95 138v-38q-28 -12 -37 -39q-8 -20 -8 -63h36v-110h-86z" />
    <glyph glyph-name="quotedblright" unicode="&#x201d;" horiz-adv-x="407" 
d="M250 604v110h86v-112q0 -112 -95 -138v38q28 12 38 39q7 20 7 63h-36zM71 604v110h86v-112q0 -112 -95 -138v38q28 12 38 39q7 20 7 63h-36z" />
    <glyph glyph-name="bullet" unicode="&#x2022;" horiz-adv-x="501" 
d="M72 357q0 74 52 126.5t126 52.5t126.5 -52.5t52.5 -126.5t-52.5 -126t-126.5 -52t-126 52t-52 126z" />
    <glyph glyph-name="endash" unicode="&#x2013;" horiz-adv-x="500" 
d="M0 243v62h500v-62h-500z" />
    <glyph glyph-name="emdash" unicode="&#x2014;" horiz-adv-x="1000" 
d="M0 243v62h1000v-62h-1000z" />
    <glyph glyph-name="tilde" unicode="&#x2dc;" horiz-adv-x="184" 
d="M233 723v0h44q-8 -44 -27 -70q-27 -38 -76 -38q-36 0 -89.5 26t-79.5 26q-47 0 -54 -52h-44q23 108 103 108q36 0 89.5 -26t79.5 -26q47 0 54 52z" />
    <glyph glyph-name="trademark" unicode="&#x2122;" horiz-adv-x="990" 
d="M177 302v368h-135v44h320v-44h-135v-368h-50zM654 380l128 334h86v-412h-50v368h-2l-149 -368h-30l-149 368h-2v-368h-50v412h86z" />
    <glyph glyph-name="scaron" unicode="&#x161;" horiz-adv-x="556" 
d="M512 366h-68q-14 61 -56 86q-39 22 -123 22q-150 0 -150 -89q0 -40 37 -55q34 -15 156 -31q126 -17 172 -45q53 -32 53 -105q0 -78 -63 -121.5t-184 -43.5q-263 0 -263 179h68q10 -65 52.5 -91t142.5 -26q173 0 173 99q0 40 -39 59q-42 20 -160 32q-121 12 -170 44.5
t-49 101.5q0 70 55 111q59 43 169 43q233 0 247 -170zM461 740l-143 -142h-80l-143 142h75l108 -101l108 101h75z" />
    <glyph glyph-name="guilsinglright" unicode="&#x203a;" horiz-adv-x="315" 
d="M198 274l-113 94v77l157 -135v-72l-157 -135v77z" />
    <glyph glyph-name="oe" unicode="&#x153;" horiz-adv-x="1093" 
d="M977 166h74q-25 -77 -85 -125q-71 -57 -172 -57q-86 0 -149 32q-71 36 -95 105q-74 -137 -250 -137q-122 0 -196.5 79t-74.5 197q0 114 72 192q78 84 203 84q104 0 168 -41q49 -33 83 -99q64 140 239 140q103 0 175 -58q95 -78 95 -236h-475q3 -196 205 -196
q144 0 183 120zM103 260q0 -95 57.5 -154t154.5 -60q96 -1 151 54t55 160q0 93 -47 150q-54 64 -156 64q-100 0 -157.5 -59t-57.5 -155zM589 298h401q-15 89 -76 136q-52 40 -120 40q-174 0 -205 -176z" />
    <glyph glyph-name="zcaron" horiz-adv-x="556" 
d="M20 0v62l395 396h-372v62h478v-62l-403 -396h418v-62h-516zM461 740l-143 -142h-80l-143 142h75l108 -101l108 101h75z" />
    <glyph glyph-name="zcaron" unicode="&#x17e;" horiz-adv-x="556" 
d="M20 0v62l395 396h-372v62h478v-62l-403 -396h418v-62h-516zM461 740l-143 -142h-80l-143 142h75l108 -101l108 101h75z" />
    <glyph glyph-name="Ydieresis" unicode="&#x178;" horiz-adv-x="686" 
d="M306 0v300l-321 414h96l262 -340l262 340h96l-321 -414v-300h-74zM193 758v110h74v-110h-74zM419 758v110h74v-110h-74z" />
    <glyph glyph-name="nonbreakingspace" unicode="&#xa0;" horiz-adv-x="278" 
 />
    <glyph glyph-name="exclamdown" unicode="&#xa1;" horiz-adv-x="296" 
d="M105 426v110h86v-110h-86zM108 -178v189l18 340h44l18 -340v-189h-80z" />
    <glyph glyph-name="cent" unicode="&#xa2;" 
d="M321 47v426q-95 -9 -146 -72q-45 -56 -45 -141q0 -91 49.5 -148t141.5 -65zM321 -124v109q-126 8 -197 84q-68 73 -68 191q0 99 57 174q72 93 208 102v84h44v-84q112 -5 179 -68q53 -50 64 -118h-74q-31 117 -169 124v-428q142 9 173 140h74q-15 -71 -63 -123
q-68 -74 -184 -79v-108h-44z" />
    <glyph glyph-name="sterling" unicode="&#xa3;" 
d="M53 320v44h72q-48 83 -48 130q0 94 72 154t197 60q131 0 201 -62q67 -61 67 -168h-74q0 87 -65 132q-54 36 -135 36q-76 0 -130 -38q-59 -42 -59 -110q0 -35 21 -79q13 -28 27 -55h221v-44h-203q20 -43 20 -93q0 -38 -31 -86.5t-72 -76.5l2 -2q69 28 113 28q34 0 102 -19
t99 -19q62 0 147 65l25 -62q-20 -23 -66 -45q-56 -26 -106 -26q-39 0 -117 22t-113 22q-67 0 -139 -42l-35 57q49 34 83 81q40 55 40 107q0 25 -26 89h-90z" />
    <glyph glyph-name="currency" unicode="&#xa4;" 
d="M86 136l54 56q-54 64 -54 154t54 154l-54 56l38 38l55 -55q67 55 155 55t155 -55l55 55l38 -38l-54 -56q54 -64 54 -154t-54 -154l54 -56l-38 -38l-55 55q-67 -55 -155 -55t-155 55l-55 -55zM136 346q0 -81 58.5 -139.5t139.5 -58.5t139.5 58.5t58.5 139.5t-58.5 139.5
t-139.5 58.5t-139.5 -58.5t-58.5 -139.5z" />
    <glyph glyph-name="yen" unicode="&#xa5;" 
d="M297 194v96l-8 11h-198v50h160l-258 341h86l255 -340l255 340h86l-258 -341h160v-50h-198l-8 -11v-96h206v-50h-206v-144h-74v144h-206v50h206z" />
    <glyph glyph-name="brokenbar" unicode="&#xa6;" horiz-adv-x="222" 
d="M86 -18v275h50v-275h-50zM86 457v275h50v-275h-50z" />
    <glyph glyph-name="section" unicode="&#xa7;" horiz-adv-x="667" 
d="M97 17h74q7 -129 173 -129q59 0 98 22q43 25 43 70q0 41 -42 73q-30 24 -110 58l-128 55q-80 34 -113 64q-43 38 -43 93q0 114 119 148q-59 39 -59 101q0 69 46 111q55 49 165 49q103 0 163 -42q67 -47 67 -139h-74q-1 45 -28 75q-40 44 -128 44q-137 0 -137 -86
q0 -40 46 -72q28 -19 109 -53l131 -55q76 -32 108 -62q41 -40 41 -102q0 -63 -43 -101q-25 -21 -76 -40q60 -42 60 -111q0 -67 -51 -111q-59 -51 -164 -51q-234 0 -247 191zM117 341q0 -43 34 -69q25 -19 109 -55q121 -52 194 -88q25 0 56 23q40 30 40 77q0 58 -85 103
l-252 109q-26 -4 -56 -27q-40 -31 -40 -73z" />
    <glyph glyph-name="dieresis" unicode="&#xa8;" horiz-adv-x="184" 
d="M-58 604v110h74v-110h-74zM168 604v110h74v-110h-74z" />
    <glyph glyph-name="copyright" unicode="&#xa9;" horiz-adv-x="800" 
d="M75 357q0 -138 94 -234.5t231 -96.5t231 96.5t94 235.5q0 137 -94 233.5t-231 96.5t-231 -96.5t-94 -234.5zM546 280h56q-18 -72 -69 -116.5t-121 -44.5q-102 0 -164.5 68t-62.5 170q0 105 60 171t164 66q76 0 128 -40q55 -43 65 -116h-56q-9 47 -45.5 76.5t-91.5 29.5
q-79 0 -123.5 -52.5t-44.5 -134.5q0 -77 45 -131q49 -57 126 -57q53 0 89.5 31t44.5 80zM25 357q0 155 110 265t265 110t265 -110t110 -265t-110 -265t-265 -110t-265 110t-110 265z" />
    <glyph glyph-name="ordfeminine" unicode="&#xaa;" horiz-adv-x="397" 
d="M300 513v39q-23 -15 -129 -22q-57 -4 -78 -18q-17 -11 -17 -37q0 -59 89 -59q54 0 92 24q43 27 43 73zM402 432v-38q-36 -4 -46 -4q-33 0 -44 16q-7 10 -8 35h-2q-24 -63 -151 -63q-51 0 -87 21q-44 25 -44 73q0 94 176 102q67 3 85.5 9.5t18.5 25.5q0 30 -23.5 42.5
t-82.5 12.5q-106 0 -110 -62h-50q13 106 162 106q154 0 154 -93v-152q0 -35 27 -35q9 0 25 4z" />
    <glyph glyph-name="guillemotleft" unicode="&#xab;" horiz-adv-x="500" 
d="M258 238v72l157 135v-77l-113 -94l113 -94v-77zM73 238v72l157 135v-77l-113 -94l113 -94v-77z" />
    <glyph glyph-name="logicalnot" unicode="&#xac;" horiz-adv-x="600" 
d="M503 108v217h-456v50h506v-267h-50z" />
    <glyph glyph-name="hyphen" unicode="&#xad;" horiz-adv-x="444" 
d="M70 237v74h304v-74h-304z" />
    <glyph glyph-name="registered" unicode="&#xae;" horiz-adv-x="800" 
d="M25 357q0 155 110 265t265 110t265 -110t110 -265t-110 -265t-265 -110t-265 110t-110 265zM75 357q0 -138 94 -234.5t231 -96.5t231 96.5t94 235.5q0 137 -94 233.5t-231 96.5t-231 -96.5t-94 -234.5zM536 134l-131 198h-95v-198h-50v446h171q145 0 145 -124
q0 -105 -112 -124l134 -198h-62zM310 536v-160h111q105 0 105 81q0 79 -105 79h-111z" />
    <glyph glyph-name="macron" unicode="&#xaf;" horiz-adv-x="184" 
d="M-101 641v56h386v-56h-386z" />
    <glyph glyph-name="degree" unicode="&#xb0;" horiz-adv-x="400" 
d="M57 565q0 59 42 101t101 42t101 -42t42 -101t-42 -101t-101 -42t-101 42t-42 101zM101 565q0 -41 29 -70t70 -29t70 29t29 70t-29 70t-70 29t-70 -29t-29 -70z" />
    <glyph glyph-name="plusminus" unicode="&#xb1;" horiz-adv-x="600" 
d="M275 324v182h50v-182h228v-50h-228v-182h-50v182h-228v50h228zM47 0v50h506v-50h-506z" />
    <glyph glyph-name="twosuperior" unicode="&#xb2;" horiz-adv-x="434" 
d="M386 336v-50h-352q6 47 29 77q34 44 123 88q82 40 108 63q31 27 31 66q0 84 -107 84q-116 0 -118 -107h-56q0 151 174 151q85 0 128 -41q35 -35 35 -87q0 -84 -105 -135q-101 -48 -133.5 -68.5t-40.5 -40.5h284z" />
    <glyph glyph-name="threesuperior" unicode="&#xb3;" horiz-adv-x="434" 
d="M186 484v44q8 -2 32 -2q106 0 106 67q0 33 -28.5 52t-72.5 19q-120 0 -120 -96h-56q2 61 43 99q47 41 133 41q66 0 108 -26q49 -30 49 -89q0 -31 -21 -54q-24 -27 -63 -31v-2q44 -2 73 -30t29 -74q0 -66 -53 -100q-45 -28 -116 -28q-193 0 -193 145h56q0 -101 140 -101
q55 0 85 28q25 22 25 54q0 51 -49 70q-32 12 -107 14z" />
    <glyph glyph-name="acute" unicode="&#xb4;" horiz-adv-x="184" 
d="M28 598l115 142h91l-145 -142h-61z" />
    <glyph glyph-name="mu" unicode="&#xb5;" horiz-adv-x="630" 
d="M499 0v102h-2q-18 -46 -73 -80q-62 -38 -142 -38q-103 0 -151 50v-236h-74v722h74v-335q0 -72 48 -108q41 -31 109 -31q211 0 211 192v282h74v-520h-74z" />
    <glyph glyph-name="paragraph" unicode="&#xb6;" horiz-adv-x="600" 
d="M249 -156v484q-87 0 -147 56t-60 134q0 94 58.5 145t164.5 51h217v-870h-56v826h-121v-826h-56z" />
    <glyph glyph-name="periodcentered" unicode="&#xb7;" horiz-adv-x="278" 
d="M73 312q0 27 19.5 46.5t46.5 19.5t46.5 -19.5t19.5 -46.5t-19.5 -46.5t-46.5 -19.5t-46.5 19.5t-19.5 46.5z" />
    <glyph glyph-name="periodcentered" unicode="&#x2219;" horiz-adv-x="278" 
d="M73 312q0 27 19.5 46.5t46.5 19.5t46.5 -19.5t19.5 -46.5t-19.5 -46.5t-46.5 -19.5t-46.5 19.5t-19.5 46.5z" />
    <glyph glyph-name="cedilla" unicode="&#xb8;" horiz-adv-x="184" 
d="M24 -78l57 80h41l-42 -57l2 -2q15 5 40 5q39 0 62.5 -18.5t23.5 -49.5q0 -32 -35 -54t-91 -22q-48 0 -99 17l12 35q49 -14 83 -14q68 0 68 38q0 36 -52 36q-31 0 -53 -11z" />
    <glyph glyph-name="onesuperior" unicode="&#xb9;" horiz-adv-x="289" 
d="M146 286v306h-133v38h32q53 0 74 12q28 16 39 66h44v-422h-56z" />
    <glyph glyph-name="ordmasculine" unicode="&#xba;" horiz-adv-x="434" 
d="M81 544q0 -56 37 -89t99 -33t99 33t37 89q0 55 -37 87.5t-99 32.5t-99 -32.5t-37 -87.5zM25 544q0 69 47 114q53 50 145 50t145 -50q47 -45 47 -114q0 -70 -47 -116q-52 -50 -145 -50t-145 50q-47 46 -47 116z" />
    <glyph glyph-name="guillemotright" unicode="&#xbb;" horiz-adv-x="500" 
d="M198 274l-113 94v77l157 -135v-72l-157 -135v77zM383 274l-113 94v77l157 -135v-72l-157 -135v77z" />
    <glyph glyph-name="onequarter" unicode="&#xbc;" horiz-adv-x="1000" 
d="M816 143v205h-2l-180 -205h182zM816 0v99h-238v44l244 279h50v-279h80v-44h-80v-99h-56zM176 -16l425 724h62l-425 -724h-62zM146 286v306h-133v38h32q53 0 74 12q28 16 39 66h44v-422h-56z" />
    <glyph glyph-name="onehalf" unicode="&#xbd;" horiz-adv-x="1000" 
d="M176 -16l425 724h62l-425 -724h-62zM146 286v306h-133v38h32q53 0 74 12q28 16 39 66h44v-422h-56zM952 50v-50h-352q6 47 29 77q34 44 123 88q82 40 108 63q31 27 31 66q0 84 -107 84q-116 0 -118 -104h-56q0 148 174 148q85 0 128 -41q35 -35 35 -87q0 -84 -105 -135
q-101 -48 -133.5 -68.5t-40.5 -40.5h284z" />
    <glyph glyph-name="threequarters" unicode="&#xbe;" horiz-adv-x="1000" 
d="M816 143v205h-2l-180 -205h182zM816 0v99h-238v44l244 279h50v-279h80v-44h-80v-99h-56zM278 -16l425 724h62l-425 -724h-62zM186 484v44q8 -2 32 -2q106 0 106 67q0 33 -28.5 52t-72.5 19q-120 0 -120 -96h-56q2 61 43 99q47 41 133 41q66 0 108 -26q49 -30 49 -89
q0 -31 -21 -54q-24 -27 -63 -31v-2q44 -2 73 -30t29 -74q0 -66 -53 -100q-45 -28 -116 -28q-193 0 -193 145h56q0 -101 140 -101q55 0 85 28q25 22 25 54q0 51 -49 70q-32 12 -107 14z" />
    <glyph glyph-name="questiondown" unicode="&#xbf;" horiz-adv-x="648" 
d="M520 45h74q0 -104 -64 -170q-70 -71 -195 -71q-109 0 -179 49q-80 56 -80 157q0 64 35 108q26 33 108 91q63 45 78 69q12 21 12 73h68q0 -77 -19 -106q-17 -25 -112 -96q-51 -38 -67 -58q-29 -34 -29 -81q0 -63 52 -100.5t133 -37.5q182 0 185 173zM386 536v-110h-86v110
h86z" />
    <glyph glyph-name="Agrave" unicode="&#xc0;" horiz-adv-x="722" 
d="M517 285l-157 355l-159 -355h316zM642 0l-95 217h-376l-97 -217h-80l324 714h86l324 -714h-86zM310 894l115 -142h-61l-145 142h91z" />
    <glyph glyph-name="Aacute" unicode="&#xc1;" horiz-adv-x="722" 
d="M517 285l-157 355l-159 -355h316zM642 0l-95 217h-376l-97 -217h-80l324 714h86l324 -714h-86zM297 752l115 142h91l-145 -142h-61z" />
    <glyph glyph-name="Acircumflex" unicode="&#xc2;" horiz-adv-x="722" 
d="M517 285l-157 355l-159 -355h316zM642 0l-95 217h-376l-97 -217h-80l324 714h86l324 -714h-86zM178 752l143 142h80l143 -142h-75l-108 101l-108 -101h-75z" />
    <glyph glyph-name="Atilde" unicode="&#xc3;" horiz-adv-x="722" 
d="M517 285l-157 355l-159 -355h316zM642 0l-95 217h-376l-97 -217h-80l324 714h86l324 -714h-86zM502 877v0h44q-8 -44 -27 -70q-27 -38 -76 -38q-36 0 -89.5 26t-79.5 26q-47 0 -54 -52h-44q23 108 103 108q36 0 89.5 -26t79.5 -26q47 0 54 52z" />
    <glyph glyph-name="Adieresis" unicode="&#xc4;" horiz-adv-x="722" 
d="M517 285l-157 355l-159 -355h316zM642 0l-95 217h-376l-97 -217h-80l324 714h86l324 -714h-86zM211 758v110h74v-110h-74zM437 758v110h74v-110h-74z" />
    <glyph glyph-name="Aring" unicode="&#xc5;" horiz-adv-x="722" 
d="M517 285l-157 355l-159 -355h316zM642 0l-95 217h-376l-97 -217h-80l324 714h86l324 -714h-86zM251 843q0 45 32 77.5t78 32.5q45 0 77.5 -32.5t32.5 -77.5t-32.5 -77.5t-77.5 -32.5q-46 0 -78 32.5t-32 77.5zM289 843q0 -30 21 -51t51 -21t51 21t21 51t-21 51t-51 21
t-51 -21t-21 -51z" />
    <glyph glyph-name="AE" unicode="&#xc6;" horiz-adv-x="1093" 
d="M528 300v346h-53l-222 -346h275zM-23 0l458 714h622v-68h-455v-242h433v-68h-433v-268h460v-68h-534v232h-317l-148 -232h-86z" />
    <glyph glyph-name="Ccedilla" unicode="&#xc7;" horiz-adv-x="815" 
d="M700 272h74q-12 -124 -105 -204q-98 -85 -246 -86l-27 -37l2 -2q15 5 40 5q39 0 62.5 -18.5t23.5 -49.5q0 -32 -35 -54t-91 -22q-48 0 -99 17l12 35q49 -14 83 -14q68 0 68 38q0 36 -52 36q-31 0 -53 -11l-17 17l43 62q-158 11 -250 111t-92 262q0 144 85 249
q104 126 295 126q131 0 224 -59q108 -69 123 -200h-74q-16 96 -96 147q-72 44 -177 44q-138 0 -216 -75q-84 -81 -84 -232q0 -132 69 -213q79 -94 231 -94q238 0 279 222z" />
    <glyph glyph-name="Egrave" unicode="&#xc8;" horiz-adv-x="685" 
d="M78 0v714h568v-68h-494v-242h476v-68h-476v-268h502v-68h-576zM292 894l115 -142h-61l-145 142h91z" />
    <glyph glyph-name="Eacute" unicode="&#xc9;" horiz-adv-x="685" 
d="M78 0v714h568v-68h-494v-242h476v-68h-476v-268h502v-68h-576zM279 752l115 142h91l-145 -142h-61z" />
    <glyph glyph-name="Ecircumflex" unicode="&#xca;" horiz-adv-x="685" 
d="M78 0v714h568v-68h-494v-242h476v-68h-476v-268h502v-68h-576zM160 752l143 142h80l143 -142h-75l-108 101l-108 -101h-75z" />
    <glyph glyph-name="Edieresis" unicode="&#xcb;" horiz-adv-x="685" 
d="M78 0v714h568v-68h-494v-242h476v-68h-476v-268h502v-68h-576zM193 758v110h74v-110h-74zM419 758v110h74v-110h-74z" />
    <glyph glyph-name="Igrave" unicode="&#xcc;" horiz-adv-x="222" 
d="M74 0v714h74v-714h-74zM60 894l115 -142h-61l-145 142h91z" />
    <glyph glyph-name="Iacute" unicode="&#xcd;" horiz-adv-x="222" 
d="M74 0v714h74v-714h-74zM47 752l115 142h91l-145 -142h-61z" />
    <glyph glyph-name="Icircumflex" unicode="&#xce;" horiz-adv-x="222" 
d="M74 0v714h74v-714h-74zM-72 752l143 142h80l143 -142h-75l-108 101l-108 -101h-75z" />
    <glyph glyph-name="Idieresis" unicode="&#xcf;" horiz-adv-x="222" 
d="M74 0v714h74v-714h-74zM-39 758v110h74v-110h-74zM187 758v110h74v-110h-74z" />
    <glyph glyph-name="Eth" unicode="&#xd0;" horiz-adv-x="778" 
d="M66 0v347h-66v56h66v311h347q154 0 235 -93.5t81 -263.5q0 -157 -77 -254q-83 -103 -228 -103h-358zM140 646v-243h258v-56h-258v-279h270q107 0 168 62q71 74 71 227q0 289 -239 289h-270z" />
    <glyph glyph-name="Ntilde" unicode="&#xd1;" horiz-adv-x="796" 
d="M66 0v714h89l499 -610h2v610h74v-714h-86l-502 610h-2v-610h-74zM539 877v0h44q-8 -44 -27 -70q-27 -38 -76 -38q-36 0 -89.5 26t-79.5 26q-47 0 -54 -52h-44q23 108 103 108q36 0 89.5 -26t79.5 -26q47 0 54 52z" />
    <glyph glyph-name="Ograve" unicode="&#xd2;" horiz-adv-x="852" 
d="M38 357q0 180 118 282q107 93 270 93t270 -93q118 -102 118 -282t-118 -282q-107 -93 -270 -93t-270 93q-118 102 -118 282zM118 357q0 -151 95 -234q84 -73 213 -73t213 73q95 83 95 234t-95 234q-84 73 -213 73t-213 -73q-95 -83 -95 -234zM375 894l115 -142h-61
l-145 142h91z" />
    <glyph glyph-name="Oacute" unicode="&#xd3;" horiz-adv-x="852" 
d="M38 357q0 180 118 282q107 93 270 93t270 -93q118 -102 118 -282t-118 -282q-107 -93 -270 -93t-270 93q-118 102 -118 282zM118 357q0 -151 95 -234q84 -73 213 -73t213 73q95 83 95 234t-95 234q-84 73 -213 73t-213 -73q-95 -83 -95 -234zM362 752l115 142h91
l-145 -142h-61z" />
    <glyph glyph-name="Ocircumflex" unicode="&#xd4;" horiz-adv-x="852" 
d="M38 357q0 180 118 282q107 93 270 93t270 -93q118 -102 118 -282t-118 -282q-107 -93 -270 -93t-270 93q-118 102 -118 282zM118 357q0 -151 95 -234q84 -73 213 -73t213 73q95 83 95 234t-95 234q-84 73 -213 73t-213 -73q-95 -83 -95 -234zM243 752l143 142h80
l143 -142h-75l-108 101l-108 -101h-75z" />
    <glyph glyph-name="Otilde" unicode="&#xd5;" horiz-adv-x="852" 
d="M38 357q0 180 118 282q107 93 270 93t270 -93q118 -102 118 -282t-118 -282q-107 -93 -270 -93t-270 93q-118 102 -118 282zM118 357q0 -151 95 -234q84 -73 213 -73t213 73q95 83 95 234t-95 234q-84 73 -213 73t-213 -73q-95 -83 -95 -234zM567 877v0h44
q-8 -44 -27 -70q-27 -38 -76 -38q-36 0 -89.5 26t-79.5 26q-47 0 -54 -52h-44q23 108 103 108q36 0 89.5 -26t79.5 -26q47 0 54 52z" />
    <glyph glyph-name="Odieresis" unicode="&#xd6;" horiz-adv-x="852" 
d="M38 357q0 180 118 282q107 93 270 93t270 -93q118 -102 118 -282t-118 -282q-107 -93 -270 -93t-270 93q-118 102 -118 282zM118 357q0 -151 95 -234q84 -73 213 -73t213 73q95 83 95 234t-95 234q-84 73 -213 73t-213 -73q-95 -83 -95 -234zM276 758v110h74v-110h-74z
M502 758v110h74v-110h-74z" />
    <glyph glyph-name="multiply" unicode="&#xd7;" horiz-adv-x="600" 
d="M299 288l191 191l36 -36l-191 -190l191 -190l-36 -36l-191 191l-189 -191l-36 36l190 190l-190 190l36 36z" />
    <glyph glyph-name="Oslash" unicode="&#xd8;" horiz-adv-x="852" 
d="M184 153l454 438q-83 73 -212 73t-213 -73q-95 -83 -95 -234q0 -125 66 -204zM667 561l-454 -438q82 -73 213 -73q129 0 213 73q95 83 95 234q0 126 -67 204zM38 12l92 89q-92 102 -92 256q0 180 118 282q107 93 270 93q160 0 266 -89l93 89l29 -30l-92 -88
q92 -98 92 -257q0 -180 -118 -282q-107 -93 -270 -93q-159 0 -266 90l-93 -90z" />
    <glyph glyph-name="Ugrave" unicode="&#xd9;" horiz-adv-x="778" 
d="M708 714v-438q0 -127 -53 -196q-77 -98 -266 -98t-266 98q-53 69 -53 196v438h74v-438q0 -226 245 -226t245 226v438h74zM338 894l115 -142h-61l-145 142h91z" />
    <glyph glyph-name="Uacute" unicode="&#xda;" horiz-adv-x="778" 
d="M708 714v-438q0 -127 -53 -196q-77 -98 -266 -98t-266 98q-53 69 -53 196v438h74v-438q0 -226 245 -226t245 226v438h74zM325 752l115 142h91l-145 -142h-61z" />
    <glyph glyph-name="Ucircumflex" unicode="&#xdb;" horiz-adv-x="778" 
d="M708 714v-438q0 -127 -53 -196q-77 -98 -266 -98t-266 98q-53 69 -53 196v438h74v-438q0 -226 245 -226t245 226v438h74zM206 752l143 142h80l143 -142h-75l-108 101l-108 -101h-75z" />
    <glyph glyph-name="Udieresis" unicode="&#xdc;" horiz-adv-x="778" 
d="M708 714v-438q0 -127 -53 -196q-77 -98 -266 -98t-266 98q-53 69 -53 196v438h74v-438q0 -226 245 -226t245 226v438h74zM239 758v110h74v-110h-74zM465 758v110h74v-110h-74z" />
    <glyph glyph-name="Yacute" unicode="&#xdd;" horiz-adv-x="686" 
d="M306 0v300l-321 414h96l262 -340l262 340h96l-321 -414v-300h-74zM279 752l115 142h91l-145 -142h-61z" />
    <glyph glyph-name="Thorn" unicode="&#xde;" horiz-adv-x="704" 
d="M152 516v-278h286q160 0 160 140q0 138 -145 138h-301zM78 0v714h74v-130h311q92 0 149 -46q66 -54 66 -160q0 -101 -64 -154.5t-184 -53.5h-278v-170h-74z" />
    <glyph glyph-name="germandbls" unicode="&#xdf;" horiz-adv-x="630" 
d="M266 359v65q30 -3 41 -3q167 0 167 118q0 61 -51 92q-44 27 -116 27q-99 0 -140 -43q-36 -37 -36 -112v-503h-74v506q0 214 250 214q131 0 193 -62q48 -47 48 -118q0 -114 -120 -141v-2q156 -28 156 -199q0 -97 -66.5 -155.5t-183.5 -58.5q-23 0 -76 8v61q39 -7 64 -7
q92 0 142 47q46 43 46 115q0 151 -207 151h-37z" />
    <glyph glyph-name="agrave" unicode="&#xe0;" horiz-adv-x="611" 
d="M471 201v79q-23 -15 -72 -22q-33 -5 -159 -17q-136 -13 -136 -96q0 -105 150 -105q83 0 146 40q71 46 71 121zM121 360h-68q9 87 61 129q60 47 187 47t184 -39q54 -38 54 -115v-272q0 -58 41 -58q13 0 39 2v-50q-40 -8 -62 -8q-50 0 -68 31q-11 19 -12 61h-2
q-70 -104 -243 -104q-79 0 -134 34q-68 42 -68 122q0 94 87 132q55 25 173.5 31.5t149.5 18t31 50.5q0 56 -40 79t-132 23q-89 0 -131.5 -26.5t-46.5 -87.5zM255 740l115 -142h-61l-145 142h91z" />
    <glyph glyph-name="aacute" unicode="&#xe1;" horiz-adv-x="611" 
d="M471 201v79q-23 -15 -72 -22q-33 -5 -159 -17q-136 -13 -136 -96q0 -105 150 -105q83 0 146 40q71 46 71 121zM121 360h-68q9 87 61 129q60 47 187 47t184 -39q54 -38 54 -115v-272q0 -58 41 -58q13 0 39 2v-50q-40 -8 -62 -8q-50 0 -68 31q-11 19 -12 61h-2
q-70 -104 -243 -104q-79 0 -134 34q-68 42 -68 122q0 94 87 132q55 25 173.5 31.5t149.5 18t31 50.5q0 56 -40 79t-132 23q-89 0 -131.5 -26.5t-46.5 -87.5zM242 598l115 142h91l-145 -142h-61z" />
    <glyph glyph-name="acircumflex" unicode="&#xe2;" horiz-adv-x="611" 
d="M471 201v79q-23 -15 -72 -22q-33 -5 -159 -17q-136 -13 -136 -96q0 -105 150 -105q83 0 146 40q71 46 71 121zM121 360h-68q9 87 61 129q60 47 187 47t184 -39q54 -38 54 -115v-272q0 -58 41 -58q13 0 39 2v-50q-40 -8 -62 -8q-50 0 -68 31q-11 19 -12 61h-2
q-70 -104 -243 -104q-79 0 -134 34q-68 42 -68 122q0 94 87 132q55 25 173.5 31.5t149.5 18t31 50.5q0 56 -40 79t-132 23q-89 0 -131.5 -26.5t-46.5 -87.5zM123 598l143 142h80l143 -142h-75l-108 101l-108 -101h-75z" />
    <glyph glyph-name="atilde" unicode="&#xe3;" horiz-adv-x="611" 
d="M471 201v79q-23 -15 -72 -22q-33 -5 -159 -17q-136 -13 -136 -96q0 -105 150 -105q83 0 146 40q71 46 71 121zM121 360h-68q9 87 61 129q60 47 187 47t184 -39q54 -38 54 -115v-272q0 -58 41 -58q13 0 39 2v-50q-40 -8 -62 -8q-50 0 -68 31q-11 19 -12 61h-2
q-70 -104 -243 -104q-79 0 -134 34q-68 42 -68 122q0 94 87 132q55 25 173.5 31.5t149.5 18t31 50.5q0 56 -40 79t-132 23q-89 0 -131.5 -26.5t-46.5 -87.5zM447 723v0h44q-8 -44 -27 -70q-27 -38 -76 -38q-36 0 -89.5 26t-79.5 26q-47 0 -54 -52h-44q23 108 103 108
q36 0 89.5 -26t79.5 -26q47 0 54 52z" />
    <glyph glyph-name="adieresis" unicode="&#xe4;" horiz-adv-x="611" 
d="M471 201v79q-23 -15 -72 -22q-33 -5 -159 -17q-136 -13 -136 -96q0 -105 150 -105q83 0 146 40q71 46 71 121zM121 360h-68q9 87 61 129q60 47 187 47t184 -39q54 -38 54 -115v-272q0 -58 41 -58q13 0 39 2v-50q-40 -8 -62 -8q-50 0 -68 31q-11 19 -12 61h-2
q-70 -104 -243 -104q-79 0 -134 34q-68 42 -68 122q0 94 87 132q55 25 173.5 31.5t149.5 18t31 50.5q0 56 -40 79t-132 23q-89 0 -131.5 -26.5t-46.5 -87.5zM156 604v110h74v-110h-74zM382 604v110h74v-110h-74z" />
    <glyph glyph-name="aring" unicode="&#xe5;" horiz-adv-x="611" 
d="M471 201v79q-23 -15 -72 -22q-33 -5 -159 -17q-136 -13 -136 -96q0 -105 150 -105q83 0 146 40q71 46 71 121zM121 360h-68q9 87 61 129q60 47 187 47t184 -39q54 -38 54 -115v-272q0 -58 41 -58q13 0 39 2v-50q-40 -8 -62 -8q-50 0 -68 31q-11 19 -12 61h-2
q-70 -104 -243 -104q-79 0 -134 34q-68 42 -68 122q0 94 87 132q55 25 173.5 31.5t149.5 18t31 50.5q0 56 -40 79t-132 23q-89 0 -131.5 -26.5t-46.5 -87.5zM196 689q0 45 32 77.5t78 32.5q45 0 77.5 -32.5t32.5 -77.5t-32.5 -77.5t-77.5 -32.5q-46 0 -78 32.5t-32 77.5z
M234 689q0 -30 21 -51t51 -21t51 21t21 51t-21 51t-51 21t-51 -21t-21 -51z" />
    <glyph glyph-name="ae" unicode="&#xe6;" horiz-adv-x="1074" 
d="M1038 242h-493q1 -88 55.5 -142t149.5 -54q162 0 200 120h74q-57 -182 -274 -182q-98 0 -165 45q-59 38 -78 95q-23 -55 -76 -91q-74 -49 -193 -49q-79 0 -134 34q-68 42 -68 122q0 94 87 132q55 25 173.5 31.5t149.5 18t31 50.5q0 56 -40 79t-132 23q-89 0 -131.5 -26.5
t-46.5 -87.5h-68q9 87 61 129q60 47 187 47q108 0 160 -28q45 -24 67 -82q68 110 211 110q122 0 197 -58q96 -75 96 -236zM545 298h419q-15 90 -78 136q-55 40 -136 40q-91 0 -144 -47t-61 -129zM477 201v79q-23 -15 -72 -22q-33 -5 -159 -17q-136 -13 -136 -96
q0 -105 150 -105q83 0 146 40q71 46 71 121z" />
    <glyph glyph-name="ccedilla" unicode="&#xe7;" horiz-adv-x="611" 
d="M512 186h74q-15 -74 -66 -126q-72 -76 -197 -76h-1l-28 -39l2 -2q15 5 40 5q39 0 62.5 -18.5t23.5 -49.5q0 -32 -35 -54t-91 -22q-48 0 -99 17l12 35q49 -14 83 -14q68 0 68 38q0 36 -52 36q-31 0 -53 -11l-17 17l46 65q-121 10 -187.5 84t-66.5 189q0 123 73 197
q78 79 220 79q120 0 192 -65q56 -51 67 -121h-74q-32 124 -185 124q-107 0 -165 -62q-54 -57 -54 -152q0 -98 57.5 -156t161.5 -58q156 0 189 140z" />
    <glyph glyph-name="egrave" unicode="&#xe8;" horiz-adv-x="648" 
d="M113 298h428q-15 90 -78 136q-55 40 -136 40q-80 0 -136 -40q-66 -47 -78 -136zM528 166h74q-59 -182 -280 -182q-146 0 -221 90q-62 75 -62 186q0 117 69 192q76 84 214 84q122 0 197 -58q96 -75 96 -236h-502q0 -84 55 -138q58 -58 154 -58q90 0 140 30q46 29 66 90z
M273 740l115 -142h-61l-145 142h91z" />
    <glyph glyph-name="eacute" unicode="&#xe9;" horiz-adv-x="648" 
d="M113 298h428q-15 90 -78 136q-55 40 -136 40q-80 0 -136 -40q-66 -47 -78 -136zM528 166h74q-59 -182 -280 -182q-146 0 -221 90q-62 75 -62 186q0 117 69 192q76 84 214 84q122 0 197 -58q96 -75 96 -236h-502q0 -84 55 -138q58 -58 154 -58q90 0 140 30q46 29 66 90z
M260 598l115 142h91l-145 -142h-61z" />
    <glyph glyph-name="ecircumflex" unicode="&#xea;" horiz-adv-x="648" 
d="M113 298h428q-15 90 -78 136q-55 40 -136 40q-80 0 -136 -40q-66 -47 -78 -136zM528 166h74q-59 -182 -280 -182q-146 0 -221 90q-62 75 -62 186q0 117 69 192q76 84 214 84q122 0 197 -58q96 -75 96 -236h-502q0 -84 55 -138q58 -58 154 -58q90 0 140 30q46 29 66 90z
M141 598l143 142h80l143 -142h-75l-108 101l-108 -101h-75z" />
    <glyph glyph-name="edieresis" unicode="&#xeb;" horiz-adv-x="648" 
d="M113 298h428q-15 90 -78 136q-55 40 -136 40q-80 0 -136 -40q-66 -47 -78 -136zM528 166h74q-59 -182 -280 -182q-146 0 -221 90q-62 75 -62 186q0 117 69 192q76 84 214 84q122 0 197 -58q96 -75 96 -236h-502q0 -84 55 -138q58 -58 154 -58q90 0 140 30q46 29 66 90z
M174 604v110h74v-110h-74zM400 604v110h74v-110h-74z" />
    <glyph glyph-name="igrave" unicode="&#xec;" horiz-adv-x="184" 
d="M55 0v520h74v-520h-74zM41 740l115 -142h-61l-145 142h91z" />
    <glyph glyph-name="iacute" unicode="&#xed;" horiz-adv-x="184" 
d="M55 0v520h74v-520h-74zM28 598l115 142h91l-145 -142h-61z" />
    <glyph glyph-name="icircumflex" unicode="&#xee;" horiz-adv-x="184" 
d="M55 0v520h74v-520h-74zM-91 598l143 142h80l143 -142h-75l-108 101l-108 -101h-75z" />
    <glyph glyph-name="idieresis" unicode="&#xef;" horiz-adv-x="184" 
d="M55 0v520h74v-520h-74zM-58 604v110h74v-110h-74zM168 604v110h74v-110h-74z" />
    <glyph glyph-name="eth" unicode="&#xf0;" 
d="M555 260q0 96 -59 155t-162 59t-162 -59t-59 -155t59 -155t162 -59t162 59t59 155zM39 260q0 117 73 192q80 84 222 84q119 0 184 -87h3q-77 138 -194 196l-123 -57l-32 26l113 52q-46 26 -117 48l51 40q72 -21 135 -57l120 55l30 -27l-113 -52q113 -65 180 -191
q58 -110 58 -213q0 -100 -54 -176q-77 -109 -241 -109q-142 0 -222 84q-73 75 -73 192z" />
    <glyph glyph-name="ntilde" unicode="&#xf1;" horiz-adv-x="630" 
d="M499 0v335q0 139 -157 139q-211 0 -211 -192v-282h-74v520h74v-102h2q18 46 73 80q62 38 142 38q225 0 225 -214v-322h-74zM456 723v0h44q-8 -44 -27 -70q-27 -38 -76 -38q-36 0 -89.5 26t-79.5 26q-47 0 -54 -52h-44q23 108 103 108q36 0 89.5 -26t79.5 -26q47 0 54 52z
" />
    <glyph glyph-name="ograve" unicode="&#xf2;" 
d="M113 260q0 -96 59 -155t162 -59t162 59t59 155t-59 155t-162 59t-162 -59t-59 -155zM39 260q0 117 73 192q80 84 222 84t223 -84q72 -75 72 -192t-72 -192q-81 -84 -223 -84t-222 84q-73 75 -73 192zM283 740l115 -142h-61l-145 142h91z" />
    <glyph glyph-name="oacute" unicode="&#xf3;" 
d="M113 260q0 -96 59 -155t162 -59t162 59t59 155t-59 155t-162 59t-162 -59t-59 -155zM39 260q0 117 73 192q80 84 222 84t223 -84q72 -75 72 -192t-72 -192q-81 -84 -223 -84t-222 84q-73 75 -73 192zM270 598l115 142h91l-145 -142h-61z" />
    <glyph glyph-name="ocircumflex" unicode="&#xf4;" 
d="M113 260q0 -96 59 -155t162 -59t162 59t59 155t-59 155t-162 59t-162 -59t-59 -155zM39 260q0 117 73 192q80 84 222 84t223 -84q72 -75 72 -192t-72 -192q-81 -84 -223 -84t-222 84q-73 75 -73 192zM151 598l143 142h80l143 -142h-75l-108 101l-108 -101h-75z" />
    <glyph glyph-name="otilde" unicode="&#xf5;" 
d="M113 260q0 -96 59 -155t162 -59t162 59t59 155t-59 155t-162 59t-162 -59t-59 -155zM39 260q0 117 73 192q80 84 222 84t223 -84q72 -75 72 -192t-72 -192q-81 -84 -223 -84t-222 84q-73 75 -73 192zM475 723v0h44q-8 -44 -27 -70q-27 -38 -76 -38q-36 0 -89.5 26
t-79.5 26q-47 0 -54 -52h-44q23 108 103 108q36 0 89.5 -26t79.5 -26q47 0 54 52z" />
    <glyph glyph-name="odieresis" unicode="&#xf6;" 
d="M113 260q0 -96 59 -155t162 -59t162 59t59 155t-59 155t-162 59t-162 -59t-59 -155zM39 260q0 117 73 192q80 84 222 84t223 -84q72 -75 72 -192t-72 -192q-81 -84 -223 -84t-222 84q-73 75 -73 192zM184 604v110h74v-110h-74zM410 604v110h74v-110h-74z" />
    <glyph glyph-name="divide" unicode="&#xf7;" horiz-adv-x="600" 
d="M47 228v50h506v-50h-506zM245 459q0 23 16.5 39t38.5 16q23 0 39 -16t16 -39q0 -22 -16 -38.5t-39 -16.5q-22 0 -38.5 16.5t-16.5 38.5zM245 47q0 23 16.5 39t38.5 16q23 0 39 -16t16 -39q0 -22 -16 -38.5t-39 -16.5q-22 0 -38.5 16.5t-16.5 38.5z" />
    <glyph glyph-name="oslash" unicode="&#xf8;" 
d="M159 121l326 303q-58 50 -151 50q-103 0 -162 -59t-59 -155q0 -82 46 -139zM39 10l68 63q-68 75 -68 187q0 117 73 192q80 84 222 84q126 0 202 -65l69 65l24 -26l-68 -63q68 -74 68 -187q0 -117 -72 -192q-81 -84 -223 -84q-124 0 -202 65l-69 -65zM509 399l-326 -303
q56 -50 151 -50q103 0 162 59t59 155q0 84 -46 139z" />
    <glyph glyph-name="ugrave" unicode="&#xf9;" horiz-adv-x="630" 
d="M499 0v102h-2q-18 -46 -73 -80q-62 -38 -142 -38q-225 0 -225 214v322h74v-335q0 -139 157 -139q211 0 211 192v282h74v-520h-74zM264 740l115 -142h-61l-145 142h91z" />
    <glyph glyph-name="uacute" unicode="&#xfa;" horiz-adv-x="630" 
d="M499 0v102h-2q-18 -46 -73 -80q-62 -38 -142 -38q-225 0 -225 214v322h74v-335q0 -139 157 -139q211 0 211 192v282h74v-520h-74zM251 598l115 142h91l-145 -142h-61z" />
    <glyph glyph-name="ucircumflex" unicode="&#xfb;" horiz-adv-x="630" 
d="M499 0v102h-2q-18 -46 -73 -80q-62 -38 -142 -38q-225 0 -225 214v322h74v-335q0 -139 157 -139q211 0 211 192v282h74v-520h-74zM132 598l143 142h80l143 -142h-75l-108 101l-108 -101h-75z" />
    <glyph glyph-name="udieresis" unicode="&#xfc;" horiz-adv-x="630" 
d="M499 0v102h-2q-18 -46 -73 -80q-62 -38 -142 -38q-225 0 -225 214v322h74v-335q0 -139 157 -139q211 0 211 192v282h74v-520h-74zM165 604v110h74v-110h-74zM391 604v110h74v-110h-74z" />
    <glyph glyph-name="yacute" unicode="&#xfd;" horiz-adv-x="556" 
d="M286 87l196 433h80l-282 -617q-28 -62 -59.5 -83.5t-92.5 -21.5q-49 0 -71 2v62q32 -2 53 -2q41 0 63 13t40 51l34 72l-253 524h80zM214 598l115 142h91l-145 -142h-61z" />
    <glyph glyph-name="thorn" unicode="&#xfe;" horiz-adv-x="667" 
d="M57 -202v922h74v-304h2q63 120 212 120q146 0 221 -90q62 -75 62 -186q0 -117 -69 -192q-76 -84 -214 -84q-71 0 -130 35q-55 33 -82 85h-2v-306h-74zM127 260q0 -88 52 -147q60 -67 166 -67q90 0 149.5 58.5t59.5 155.5q0 88 -48 146q-56 68 -161 68q-95 0 -155 -56
q-63 -59 -63 -158z" />
    <glyph glyph-name="ydieresis" unicode="&#xff;" horiz-adv-x="556" 
d="M286 87l196 433h80l-282 -617q-28 -62 -59.5 -83.5t-92.5 -21.5q-49 0 -71 2v62q32 -2 53 -2q41 0 63 13t40 51l34 72l-253 524h80zM128 604v110h74v-110h-74zM354 604v110h74v-110h-74z" />
    <glyph glyph-name="minus" horiz-adv-x="600" 
d="M47 228v50h506v-50h-506z" />
    <glyph glyph-name="fraction" horiz-adv-x="167" 
d="M-160 -16l425 724h62l-425 -724h-62z" />
    <glyph glyph-name="fi" horiz-adv-x="500" 
d="M107 0v464h-113v56h113v69q0 71 37 102q34 29 109 29q37 0 83 -4v-62q-46 4 -69 4q-50 0 -68 -16t-18 -61v-61h147v-56h-147v-464h-74zM371 0v520h74v-520h-74zM371 610v110h74v-110h-74z" />
    <glyph glyph-name="fl" horiz-adv-x="500" 
d="M371 0v720h74v-720h-74zM107 0v464h-113v56h113v69q0 71 37 102q34 29 109 29q37 0 83 -4v-62q-46 4 -69 4q-50 0 -68 -16t-18 -61v-61h147v-56h-147v-464h-74z" />
    <glyph glyph-name="breve" horiz-adv-x="184" 
d="M-73 732h50q6 -76 115 -76t115 76h50q-12 -132 -165 -132t-165 132z" />
    <glyph glyph-name="dotaccent" horiz-adv-x="184" 
d="M55 604v110h74v-110h-74z" />
    <glyph glyph-name="ring" horiz-adv-x="184" 
d="M-18 669q0 45 32 77.5t78 32.5q45 0 77.5 -32.5t32.5 -77.5t-32.5 -77.5t-77.5 -32.5q-46 0 -78 32.5t-32 77.5zM20 669q0 -30 21 -51t51 -21t51 21t21 51t-21 51t-51 21t-51 -21t-21 -51z" />
    <glyph glyph-name="hungarumlaut" horiz-adv-x="184" 
d="M-83 598l115 142h91l-145 -142h-61zM139 598l115 142h91l-145 -142h-61z" />
    <glyph glyph-name="ogonek" horiz-adv-x="184" 
d="M201 -144l12 -35q-49 -17 -102 -17q-106 0 -106 78q0 42 40 78q29 26 66 40h54q-98 -47 -98 -112q0 -46 52 -46q34 0 82 14z" />
    <glyph glyph-name="caron" horiz-adv-x="184" 
d="M275 740l-143 -142h-80l-143 142h75l108 -101l108 101h75z" />
    <glyph glyph-name="Lslash" horiz-adv-x="593" 
d="M140 360l210 146v-62l-210 -146v-230h453v-68h-527v247l-78 -54v62l78 54v405h74v-354z" />
    <glyph glyph-name="dotlessi" horiz-adv-x="184" 
d="M55 0v520h74v-520h-74z" />
    <glyph glyph-name="lslash" horiz-adv-x="184" 
d="M129 405l55 41v-56l-55 -41v-349h-74v299l-55 -42v56l55 42v365h74v-315z" />
    </font>
</defs>
</svg>
